<svg width="20" height="20" viewBox="0 0 20 20" fill="none" xmlns="http://www.w3.org/2000/svg">
<g clip-path="url(#clip0_1_12161)">
<path d="M5.20833 17.5H8.54167C8.54167 18.4167 7.79167 19.1667 6.875 19.1667C5.95833 19.1667 5.20833 18.4167 5.20833 17.5ZM3.54167 16.6667H10.2083V15H3.54167V16.6667ZM13.125 8.74999C13.125 11.9333 10.9083 13.6333 9.98333 14.1667H3.76667C2.84167 13.6333 0.625 11.9333 0.625 8.74999C0.625 5.29999 3.425 2.49999 6.875 2.49999C10.325 2.49999 13.125 5.29999 13.125 8.74999ZM11.4583 8.74999C11.4583 6.22499 9.4 4.16666 6.875 4.16666C4.35 4.16666 2.29167 6.22499 2.29167 8.74999C2.29167 10.8083 3.53333 11.9917 4.25 12.5H9.5C10.2167 11.9917 11.4583 10.8083 11.4583 8.74999ZM17.1833 6.97499L16.0417 7.49999L17.1833 8.02499L17.7083 9.16666L18.2333 8.02499L19.375 7.49999L18.2333 6.97499L17.7083 5.83333L17.1833 6.97499ZM15.2083 5.83333L15.9917 4.11666L17.7083 3.33333L15.9917 2.54999L15.2083 0.833328L14.425 2.54999L12.7083 3.33333L14.425 4.11666L15.2083 5.83333Z" fill="url(#paint0_linear_1_12161)"/>
</g>
<defs>
<linearGradient id="paint0_linear_1_12161" x1="0.624708" y1="19.1665" x2="18.9535" y2="0.421169" gradientUnits="userSpaceOnUse">
<stop stop-color="#FCCEC0"/>
<stop offset="0.33" stop-color="#EBACC9"/>
<stop offset="0.66" stop-color="#CEB6DA"/>
<stop offset="1" stop-color="#9FCAED"/>
</linearGradient>
<clipPath id="clip0_1_12161">
<rect width="20" height="20" fill="white"/>
</clipPath>
</defs>
</svg>
